<?xml version="1.0" standalone="no"?>
<!DOCTYPE svg PUBLIC "-//W3C//DTD SVG 20010904//EN"
 "http://www.w3.org/TR/2001/REC-SVG-20010904/DTD/svg10.dtd">
<svg version="1.0" xmlns="http://www.w3.org/2000/svg"
 width="700.000000pt" height="700.000000pt" viewBox="0 0 700.000000 700.000000"
 preserveAspectRatio="xMidYMid meet">
<metadata>
Created by potrace 1.14, written by Peter Selinger 2001-2017
</metadata>
<g transform="translate(0.000000,700.000000) scale(0.100000,-0.100000)"
fill="#000000" stroke="none">
<path d="M1976 6180 c-2 -8 -4 -139 -3 -290 l1 -275 -584 -5 -584 -5 -1 -2385
c0 -1312 1 -2392 3 -2400 3 -13 309 -15 2687 -14 1477 0 2688 3 2691 7 9 8 12
4775 3 4788 -3 5 -257 10 -584 11 l-579 3 1 288 c0 273 -1 287 -18 288 -11 0
-40 1 -66 2 l-48 1 -3 -292 -2 -292 -1390 0 -1390 0 -2 292 -3 292 -63 1 c-47
0 -63 -4 -66 -15z m4075 -709 c3 -1 5 -232 5 -513 l-1 -513 -2555 0 -2555 0
-1 512 c0 510 0 512 20 515 17 2 5069 1 5087 -1z m1 -1171 c0 -3 2 -759 3
-1681 l1 -1675 -2556 0 -2556 0 0 1675 c-1 922 3 1679 8 1682 11 7 5097 7
5100 -1z"/>
<path d="M4317 2688 c-7 -4 -11 -113 -11 -345 -1 -186 0 -345 2 -354 3 -14 42
-16 360 -15 l357 1 1 358 c1 321 -1 357 -15 358 -78 5 -685 2 -694 -3z m573
-355 l0 -223 -223 0 -224 0 2 223 c1 122 3 222 4 223 0 0 100 0 221 0 l220 0
0 -223z"/>
</g>
</svg>
