<?xml version="1.0" standalone="no"?>
<!DOCTYPE svg PUBLIC "-//W3C//DTD SVG 20010904//EN"
 "http://www.w3.org/TR/2001/REC-SVG-20010904/DTD/svg10.dtd">
<svg version="1.0" xmlns="http://www.w3.org/2000/svg"
 width="512.000000pt" height="512.000000pt" viewBox="0 0 512.000000 512.000000"
 preserveAspectRatio="xMidYMid meet">
<metadata>
Created by potrace 1.14, written by Peter Selinger 2001-2017
</metadata>
<g transform="translate(0.000000,512.000000) scale(0.100000,-0.100000)"
fill="#000000" stroke="none">
<path d="M1088 5100 c-102 -32 -176 -87 -233 -175 -48 -75 -67 -143 -70 -258
l-3 -102 -259 0 c-215 -1 -263 -4 -288 -17 -36 -19 -57 -42 -79 -85 -15 -29
-16 -201 -16 -1944 0 -1911 0 -1913 21 -1955 13 -29 35 -51 64 -68 l44 -26
1328 0 1329 0 16 -27 c20 -34 146 -158 213 -211 191 -148 402 -220 660 -227
146 -4 246 10 370 51 268 88 469 247 633 499 37 58 113 240 128 310 23 102 32
196 29 305 -2 69 -5 132 -8 140 -2 8 -7 38 -12 65 -9 60 -57 200 -92 270 -48
96 -138 220 -214 296 -98 97 -187 161 -313 224 l-101 50 0 1110 c-1 1203 2
1130 -52 1192 -37 42 -66 46 -333 47 l-255 1 -2 50 c-6 150 -25 255 -45 255
-5 0 -8 7 -8 17 0 31 -119 163 -147 163 -7 0 -13 3 -13 8 0 10 -50 31 -112 47
-66 18 -328 18 -394 1 -126 -33 -222 -113 -279 -231 -35 -72 -47 -135 -47
-242 0 -35 -3 -64 -6 -64 -4 -1 -167 -2 -362 -3 l-355 -1 -1 70 c0 105 -12
174 -39 233 -50 109 -142 191 -256 231 -78 26 -357 27 -441 1z m354 -369 c16
-21 18 -45 18 -287 0 -241 -1 -264 -17 -272 -22 -10 -263 -9 -280 1 -10 6 -13
73 -13 276 0 331 -13 307 174 305 90 0 101 -3 118 -23z m1765 4 c16 -16 17
-42 18 -288 0 -261 0 -269 -20 -276 -27 -10 -272 -7 -282 2 -11 12 -12 507 -1
538 14 39 39 46 159 44 88 -2 111 -5 126 -20z m542 -1865 c0 -324 -2 -590 -3
-590 -2 0 -43 -7 -92 -15 -108 -19 -192 -45 -303 -96 -46 -22 -87 -39 -90 -39
-3 0 -6 62 -6 137 l0 138 -180 0 -180 0 -2 -183 -2 -182 27 -1 c15 -1 69 -1
120 -1 l92 1 -88 -88 c-132 -131 -230 -287 -286 -457 -41 -124 -55 -230 -51
-394 l2 -145 -1033 1 c-569 0 -1036 3 -1039 6 -5 4 -8 1638 -6 2351 l1 147
1559 0 1559 0 1 -590z m276 -981 c221 -54 414 -210 511 -414 86 -180 100 -389
38 -574 -24 -72 -81 -185 -113 -224 -54 -65 -157 -159 -209 -191 -57 -34 -202
-100 -202 -91 0 3 -11 0 -25 -5 -28 -10 -131 -24 -185 -23 -191 0 -379 75
-531 210 -51 46 -136 165 -167 233 -60 132 -88 316 -68 440 20 119 84 278 142
350 91 113 181 185 299 241 161 75 333 92 510 48z"/>
<path d="M1115 2816 l0 -181 183 -3 c168 -2 182 -1 182 15 1 26 1 304 0 329 0
20 -5 21 -182 21 l-183 0 0 -181z"/>
<path d="M1709 2886 c-1 -165 -1 -219 0 -239 1 -16 15 -17 183 -15 l182 3 0
181 1 180 -182 1 -183 0 -1 -111z"/>
<path d="M2305 2992 c-3 -3 -5 -86 -5 -184 l0 -178 184 0 183 0 0 183 -1 183
-178 1 c-97 0 -180 -2 -183 -5z"/>
<path d="M2892 2813 l0 -183 184 0 183 0 -1 184 0 183 -184 0 -183 -1 1 -183z"/>
<path d="M1122 2395 c-4 -5 -7 -88 -7 -182 0 -147 2 -173 15 -174 8 0 90 -1
183 -2 l167 -2 1 60 c2 167 -1 298 -6 303 -11 11 -346 8 -353 -3z"/>
<path d="M1713 2398 c-6 -11 -5 -349 1 -356 3 -2 85 -5 183 -6 l178 -1 -2 180
c-1 99 -2 182 -2 185 -1 8 -352 6 -358 -2z"/>
<path d="M2300 2223 c0 -183 0 -183 23 -184 34 -1 321 -1 333 0 8 1 11 56 10
183 l-1 182 -183 1 -182 0 0 -182z"/>
<path d="M1185 1810 l-70 -5 0 -180 1 -179 182 -1 c155 0 182 2 183 15 2 53 0
343 -3 346 -6 6 -222 9 -293 4z"/>
<path d="M1763 1812 c-42 -2 -53 -7 -54 -20 0 -25 0 -238 0 -297 l1 -50 172 2
c95 0 178 1 183 2 11 1 13 346 3 356 -7 7 -224 12 -305 7z"/>
<path d="M2413 1812 l-113 -3 0 -182 0 -182 172 1 c95 1 178 2 184 3 8 1 11
54 11 180 l-1 179 -70 4 c-39 2 -122 2 -183 0z"/>
<path d="M4006 1305 c-125 -124 -228 -225 -229 -225 -2 0 -66 63 -142 140
l-139 139 -99 -101 -99 -101 125 -126 c69 -69 175 -177 235 -238 61 -62 113
-113 116 -113 3 0 152 146 330 324 l324 324 -98 101 -99 102 -225 -226z"/>
</g>
</svg>
